<svg width="277" height="389" viewBox="0 0 277 389" fill="none" xmlns="http://www.w3.org/2000/svg">
<path d="M-96.4413 242.699C-74.1478 230.053 -42.4521 211.382 -16.3801 239.816L12.5965 270.781C42.8603 301.782 12.7162 340.913 3.36552 349.453L-96.4413 242.699Z" fill="#10386A"/>
<path d="M6.99219 219.632L35.8172 250.521L13.9141 270.445C-3.12385 265.252 -12.1734 254.572 -14.9109 239.555L6.99219 219.632Z" fill="#F7CA92"/>
<path d="M-1.53271 227.894L17.8706 266.391L31.4872 253.961L1.8069 224.845L-1.53271 227.894Z" fill="#F25746"/>
<path d="M14.8313 241.107C51.9792 280.913 110.855 287.022 146.334 254.752C181.813 222.482 180.461 164.053 143.313 124.248C106.165 84.4421 47.2892 78.3331 11.81 110.603C-23.6692 142.873 -22.3165 201.301 14.8313 241.107Z" fill="#F7CA92"/>
<path d="M-0.970771 142.167C-11.6702 131.677 -24.3066 116.859 -8.95501 100.834C-2.20816 93.7906 9.78839 89.8597 20.1227 113.547L-0.970771 142.167Z" fill="#F7CA92"/>
<path d="M-0.742396 134.479C-10.7866 123.69 -10.8196 114.845 -4.08622 108.723C2.64723 102.6 8.68879 108.016 15.3509 119.861L-0.742396 134.479Z" fill="#FF5555"/>
<path d="M22.1857 110.639C22.1857 110.639 16.8886 108.916 17.3116 107.449C20.0528 97.94 23.5908 90.8924 29.3925 83.2214L25.5194 81.2684C37.9484 72.5858 49.2509 64.0201 64.0466 64.6555C61.3772 59.2122 59.7888 53.1122 60.6273 47.9101C69.5056 48.6103 78.5828 50.8074 87.8339 54.5924C88.0696 44.9671 90.8799 40.7082 93.254 36.8064C92.153 45.2089 96.417 54.8252 102.923 63.9547C105.636 52.3834 109.361 50.0517 112.967 46.635C111.688 56.5614 113.656 67.1888 117.949 78.3184C123.498 70.1613 129.939 62.507 137.236 55.0505C138.009 62.818 138.492 70.4088 137.398 77.0438C147.09 76.5456 156.275 76.7757 164.333 78.6235C153.84 86.66 144.152 92.4199 131.991 98.9271L129.246 101.023C137.06 96.6898 144.858 92.626 152.631 92.4012C170.623 91.8808 183.88 95.2247 196.023 99.3019C185.988 106.062 174.537 112.302 161.587 117.992L151.175 123.071C183.755 109.875 191.845 125.634 211.843 142.177C197.695 147.732 194.697 150.668 179.522 145.505L175.119 144.136C294.742 187.84 178.099 159.389 235.162 173.707C229.371 177.401 222.919 176.643 216.47 175.904C225.761 181.903 236.109 185.207 237.94 188.589C213.7 198.295 196.487 189.843 176.268 172.868C226.636 189.764 220.999 223.986 220.547 227.113L199.427 208.413C198.968 244.925 151.424 257.457 148.215 256.381C145.006 255.304 145.117 252.085 145.117 252.085C145.117 252.085 152.5 244.47 153.979 242.084C155.674 239.351 159.077 234.555 159.281 230.125C159.463 226.158 156.885 217.722 156.885 217.722C156.425 215.9 154.261 191.503 154.261 191.503L142.098 203.351C137.971 191.877 136.376 180.646 137.513 169.679L131.911 179.951C122.229 166.522 120.04 152.867 120.662 139.125L116.604 150.043C103.412 137.125 98.0972 123.044 94.1821 108.757L84.6832 123.263C75.2563 110.978 71.9578 100.862 67.2078 89.1724L58.106 91.7792C43.5228 94.64 27.8391 106.979 22.1857 110.639Z" fill="#8F4A03"/>
<path d="M35.3984 193.998C30.0068 212.909 41.7314 227.046 64.8466 225.948" stroke="black" stroke-width="11.5904" stroke-linecap="round" stroke-linejoin="round"/>
<path d="M31.0373 145.26C48.9346 141.753 57.4991 164.068 52.2201 172.634" stroke="black" stroke-width="16.2266" stroke-linecap="round" stroke-linejoin="round"/>
<path d="M89.18 213.452C107.053 209.952 111.545 225.932 108.892 235.222" stroke="black" stroke-width="16.2266" stroke-linecap="round" stroke-linejoin="round"/>
<path d="M120.459 195.918C127.721 200.988 131.35 205.13 132.021 211.258" stroke="black" stroke-width="12.7494" stroke-linecap="round" stroke-linejoin="round"/>
<path d="M53.3404 127.427C61.6621 130.289 64.4561 135.109 65.1233 141.245" stroke="black" stroke-width="12.7494" stroke-linecap="round" stroke-linejoin="round"/>
<path d="M3.45475 178.615C9.98404 185.611 20.6795 186.369 27.3437 180.308C34.0079 174.248 34.1172 163.664 27.5879 156.668C21.0587 149.672 10.3632 148.914 3.69903 154.975C-2.96516 161.035 -3.07453 171.619 3.45475 178.615Z" fill="#EF972A"/>
<path d="M79.7087 263.214C86.2379 270.21 96.9334 270.968 103.598 264.907C110.262 258.847 110.371 248.263 103.842 241.267C97.3126 234.271 86.6171 233.513 79.9529 239.574C73.2887 245.634 73.1794 256.218 79.7087 263.214Z" fill="#EF972A"/>
<path d="M56.5621 204.041C58.9842 206.636 62.9517 206.917 65.4238 204.669C67.8959 202.421 67.9365 198.494 65.5144 195.899C63.0924 193.304 59.1249 193.023 56.6528 195.271C54.1807 197.519 54.1401 201.446 56.5621 204.041Z" fill="#C9570B"/>
<path d="M105.638 271.421C115.184 282.906 129.962 297.604 147.59 284.079C155.338 278.134 160.452 266.748 137.567 254.367L105.638 271.421Z" fill="#F7CA92"/>
<path d="M114.453 272.753C124.377 283.637 133.298 284.514 140.12 278.492C146.943 272.471 142.057 266.026 130.744 258.359L114.453 272.753Z" fill="#FF5555"/>
</svg>
