<svg width="275" height="257" viewBox="0 0 275 257" fill="none" xmlns="http://www.w3.org/2000/svg">
<path d="M136.756 274.516C152.266 274.516 164.84 270.574 164.84 265.712C164.84 260.85 152.266 256.908 136.756 256.908C121.245 256.908 108.672 260.85 108.672 265.712C108.672 270.574 121.245 274.516 136.756 274.516Z" fill="#0B24C9"/>
<path d="M113.562 228.645H159.954V263.13C143.146 273.513 127.784 272.733 113.562 263.13V228.645Z" fill="#F5BE7A"/>
<path d="M113.562 242.582L159.954 256.775V234.975L113.562 237.235V242.582Z" fill="#C9570B"/>
<path d="M244.444 141.33C243.119 197.136 196.033 242.404 136.314 242.404C76.5961 242.404 35.0132 196.732 28.1848 141.33C19.4126 70.1573 65.52 39.4949 136.314 40.2562C196.23 40.9006 246.048 73.7436 244.444 141.33Z" fill="#F5BE7A"/>
<path d="M39.3548 178.764C23.0591 179.534 1.85537 178.521 0.189577 152.82C-0.542402 141.525 5.0811 128.242 31.7462 138.227L39.3548 178.764Z" fill="#F5BE7A"/>
<path d="M33.4185 172.386C17.3871 172.364 10.2461 165.397 10.2461 154.849C10.2461 144.302 19.0244 143.466 33.4302 147.189L33.4185 172.386Z" fill="#FF5555"/>
<path d="M114.438 189.029C126.03 209.108 146.672 210.307 163.332 189.154" stroke="black" stroke-width="11.5904" stroke-linecap="round" stroke-linejoin="round"/>
<path d="M180.164 115.168C189.969 112.845 196.21 113.006 201.832 117.443" stroke="black" stroke-width="12.7494" stroke-linecap="round" stroke-linejoin="round"/>
<path d="M80.2227 114.579C88.9888 109.518 95.1459 110.982 100.768 115.42" stroke="black" stroke-width="12.7494" stroke-linecap="round" stroke-linejoin="round"/>
<path d="M74.7793 202.214C85.25 202.214 93.7382 193.725 93.7382 183.255C93.7382 172.784 85.25 164.296 74.7793 164.296C64.3086 164.296 55.8203 172.784 55.8203 183.255C55.8203 193.725 64.3086 202.214 74.7793 202.214Z" fill="#C9570B"/>
<path d="M205.244 202.214C215.715 202.214 224.203 193.725 224.203 183.255C224.203 172.784 215.715 164.296 205.244 164.296C194.773 164.296 186.285 172.784 186.285 183.255C186.285 193.725 194.773 202.214 205.244 202.214Z" fill="#C9570B"/>
<path d="M137.193 176.555C141.077 176.555 144.226 173.406 144.226 169.522C144.226 165.638 141.077 162.489 137.193 162.489C133.309 162.489 130.16 165.638 130.16 169.522C130.16 173.406 133.309 176.555 137.193 176.555Z" fill="#C9570B"/>
<path d="M233.121 186.364C249.405 187.36 272.124 186.461 274.146 160.786C275.034 149.502 269.596 136.142 242.795 145.756L233.121 186.364Z" fill="#F5BE7A"/>
<path d="M240.648 179.889C256.679 180.089 263.916 173.221 264.062 162.675C264.208 152.128 255.443 151.171 240.987 154.694L240.648 179.889Z" fill="#FF5555"/>
<path d="M97.1304 158.021C103.344 157.373 107.559 148.965 106.546 139.241C105.533 129.517 99.6747 122.159 93.4613 122.806C87.2478 123.453 83.0323 131.861 84.0455 141.585C85.0587 151.31 90.917 158.668 97.1304 158.021Z" fill="#241C1C"/>
<path d="M184.967 157.599C178.754 156.952 174.538 148.544 175.551 138.82C176.564 129.095 182.423 121.737 188.636 122.384C194.85 123.032 199.065 131.44 198.052 141.164C197.039 150.888 191.18 158.247 184.967 157.599Z" fill="#241C1C"/>
<path d="M243.478 83.9818L244.86 144.627C244.865 144.821 244.83 145.014 244.759 145.194C244.688 145.375 244.582 145.539 244.446 145.678C244.31 145.817 244.148 145.927 243.97 146.002C243.791 146.077 243.599 146.116 243.405 146.116H240.291C239.994 146.116 239.705 146.011 239.477 145.82C239.249 145.628 239.095 145.363 239.043 145.07L236.396 130.163L225.363 87.8209" fill="#110402"/>
<path d="M34.1395 79.4276L27.3631 137.524C27.3457 137.674 27.3581 137.825 27.3999 137.97C27.4417 138.115 27.5121 138.25 27.6067 138.368C27.7013 138.485 27.8183 138.583 27.9509 138.655C28.0836 138.726 28.2292 138.771 28.3793 138.786L31.2902 139.074C31.7321 139.118 32.1753 139.004 32.5421 138.754C32.9089 138.504 33.1759 138.132 33.2962 137.705L37.2568 123.633L52.405 82.5833" fill="#110402"/>
<path d="M56.8399 61.2745C59.5933 89.014 39.6938 117.749 27.714 138.826C1.17907 88.1841 13.9997 56.839 60.222 43.5481C65.1734 34.1031 70.6525 24.9807 83.8037 20.5529C93.2758 8.09192 108.972 3.63646 129.493 5.3895C153.5 -5.49602 180.06 1.81671 202.634 12.2214L187.711 9.22204C235.781 32.1172 260.218 64.2918 245.007 112.033L240.409 137.44L233.171 103.747L136.862 63.5437L118.255 45.5476L126.914 61.5442L88.0413 56.212L88.4109 61.8775L56.8399 61.2745Z" fill="#110402"/>
</svg>
