<svg width="293" height="249" viewBox="0 0 293 249" fill="none" xmlns="http://www.w3.org/2000/svg">
<path d="M129.984 233.973L173.571 229.315L177.034 261.715C162.285 273.158 147.773 273.967 133.447 266.373L129.984 233.973Z" fill="#9F5131"/>
<path d="M131.385 247.068L176.397 255.745L174.208 235.262L130.848 242.044L131.385 247.068Z" fill="#8E3820"/>
<path d="M152.746 244.616C208.854 238.62 249.795 191.242 244.19 138.795C238.585 86.3479 188.557 48.6921 132.449 54.6883C76.3402 60.6845 35.3992 108.062 41.0041 160.509C46.6091 212.956 96.6375 250.612 152.746 244.616Z" fill="#9F5131"/>
<path d="M55.2548 194.559C40.0215 196.918 19.998 198.096 15.8524 174.116C14.0305 163.577 17.9802 150.532 44.0359 157.236L55.2548 194.559Z" fill="#9F5131"/>
<path d="M49.0352 189.163C33.9707 190.751 26.5617 184.922 25.5026 175.012C24.4436 165.102 32.6072 163.435 46.516 165.487L49.0352 189.163Z" fill="#863129"/>
<path d="M126.828 196.665C139.736 214.366 159.251 213.42 172.779 191.872" stroke="black" stroke-width="11.5904" stroke-linecap="round" stroke-linejoin="round"/>
<path d="M181.164 120.669C190.144 117.502 196.023 117.026 201.751 120.631" stroke="black" stroke-width="12.7494" stroke-linecap="round" stroke-linejoin="round"/>
<path d="M87.2073 130.15C94.9353 124.514 100.867 125.272 106.595 128.877" stroke="black" stroke-width="12.7494" stroke-linecap="round" stroke-linejoin="round"/>
<path d="M90.8935 213.033C100.731 211.982 107.854 203.155 106.803 193.317C105.751 183.479 96.924 176.356 87.0862 177.408C77.2485 178.459 70.1257 187.286 71.1771 197.124C72.2284 206.962 81.0558 214.085 90.8935 213.033Z" fill="#642A1F"/>
<path d="M213.472 199.933C223.309 198.882 230.432 190.055 229.381 180.217C228.329 170.379 219.502 163.256 209.664 164.308C199.827 165.359 192.704 174.186 193.755 184.024C194.807 193.862 203.634 200.985 213.472 199.933Z" fill="#642A1F"/>
<path d="M146.958 182.659C150.607 182.269 153.249 178.995 152.859 175.345C152.469 171.696 149.195 169.054 145.545 169.444C141.896 169.834 139.254 173.108 139.644 176.758C140.034 180.407 143.308 183.049 146.958 182.659Z" fill="#C9570B"/>
<path d="M238.069 182.244C253.468 181.544 274.723 178.419 274.045 154.093C273.747 143.402 267.296 131.396 243.08 143.12L238.069 182.244Z" fill="#9F5131"/>
<path d="M244.492 175.404C259.573 173.982 265.683 166.803 264.762 156.88C263.84 146.956 255.508 146.936 242.28 151.698L244.492 175.404Z" fill="#863129"/>
<path d="M107.455 169.268C113.228 168.035 116.345 159.713 114.416 150.678C112.488 141.643 106.245 135.318 100.472 136.55C94.6993 137.782 91.5828 146.105 93.5111 155.14C95.4395 164.175 101.683 170.5 107.455 169.268Z" fill="#241C1C"/>
<path d="M189.943 160.052C184.041 160.067 179.236 152.591 179.211 143.353C179.187 134.115 183.952 126.613 189.855 126.597C195.758 126.582 200.563 134.058 200.587 143.296C200.612 152.534 195.846 160.036 189.943 160.052Z" fill="#241C1C"/>
<path d="M237.524 85.0107L244.912 141.851C244.935 142.033 244.922 142.218 244.874 142.394C244.825 142.571 244.741 142.736 244.628 142.88C244.514 143.024 244.373 143.144 244.213 143.232C244.053 143.321 243.876 143.377 243.694 143.396L240.768 143.709C240.489 143.739 240.207 143.669 239.974 143.512C239.74 143.355 239.569 143.121 239.49 142.851L235.507 129.111L220.889 90.4366" fill="#110402"/>
<path d="M40.3818 101.751L39.8484 157.016C39.847 157.158 39.8739 157.3 39.9277 157.431C39.9816 157.563 40.0613 157.683 40.1619 157.784C40.2626 157.885 40.3823 157.965 40.5141 158.019C40.646 158.073 40.7873 158.1 40.9298 158.099L43.6936 158.078C44.1132 158.074 44.5183 157.923 44.8378 157.651C45.1572 157.379 45.3708 157.004 45.4409 156.59L47.7492 142.972L57.8599 102.882" fill="#110402"/>
<path d="M170.006 9.40016C163.538 9.68943 157.526 13.6794 154.013 20.0146C152.749 18.1935 151.119 16.4933 148.353 15.1657C128.679 12.3684 127.086 21.5876 122.123 28.5673C114.969 25.4264 106.621 24.5728 97.0392 26.0786C94.9144 28.2551 93.747 31.2072 95.8579 36.8033L92.5057 38.8952C87.9107 35.295 82.0505 33.6265 76.1965 34.252C63.9159 35.5648 55.0062 46.4121 56.2956 58.4809C56.3748 59.2218 56.5241 59.954 56.6931 60.68C51.2027 61.4253 46.1822 64.1466 42.6037 68.3168C32.6499 70.9532 26.125 80.9677 27.2849 91.828C28.5743 103.898 38.8323 112.698 50.1965 111.484C55.4393 110.92 60.2566 108.254 63.6639 104.026C69.3904 102.972 74.481 99.7655 77.8536 95.0876C80.6236 95.8828 83.5259 96.1422 86.4004 95.8515C91.3209 95.306 95.9236 93.1712 99.4881 89.7823C103.623 90.8482 108.715 91.1327 113.886 90.5867C124.398 89.4623 133.117 85.1707 134.789 80.2985C139.101 82.1496 145.271 82.8305 151.634 82.1575C158.584 81.4149 164.936 79.1463 168.681 76.0693C170.846 80.0621 176.223 82.3654 181.967 81.7602C186.665 81.2575 190.802 78.8849 192.823 75.5344C195.677 77.8231 199.602 79.6118 203.869 80.5685C209.285 81.7713 212.281 85.9834 216.151 84.344C217.137 88.1843 219.56 91.2809 222.897 92.9665C229.938 96.4861 241.444 88.4403 245.604 80.5058C249.764 72.5706 247.428 63.2837 240.387 59.7626C238.098 58.6311 235.492 58.2127 232.84 58.5511C233.028 58.2291 233.21 57.902 233.381 57.57C237.807 48.9243 235.289 38.7889 227.756 34.9313C223.832 32.9261 219.108 32.9556 214.789 35.0123C213.624 31.0963 211.094 27.9597 207.695 26.217C201.828 23.23 194.425 24.8763 189.304 30.3068C189.174 19.4751 182.136 10.635 172.739 9.50306C171.833 9.39412 170.92 9.35972 170.006 9.40016Z" fill="#110402"/>
</svg>
