<svg width="252" height="231" viewBox="0 0 252 231" fill="none" xmlns="http://www.w3.org/2000/svg">
<path d="M15.6423 162.941L13.6454 188L37.6193 203.156L39.8523 180.883L45.8069 206.627L65.8148 213.025L63.9568 193.356L70.8264 214.008L96.6986 222.95L96.4147 206.171L98.7404 221.686L138.825 225.745L142.034 207.37L144.534 209.255L144.424 225.857L203.363 214.721L209.117 185.221L207.715 213.15L234.267 204.925L237.76 151.129L234.622 114.81C233.834 86.1414 223.906 55.2174 195.795 32.6245C153.526 -1.34636 94.1974 3.10348 59.9661 27.9398C42 40.9747 28.4193 61.3979 22.0983 92.3674L15.6423 162.941Z" fill="#040816"/>
<mask id="mask0_416_87" style="mask-type:luminance" maskUnits="userSpaceOnUse" x="52" y="215" width="124" height="84">
<path d="M52.3643 290.364C54.5993 261.234 75.3373 220.727 103.077 215.529L136.6 217.976C174.871 231.444 176.065 287.775 175.252 298.369L52.3643 290.364Z" fill="white"/>
</mask>
<g mask="url(#mask0_416_87)">
<path d="M52.3643 290.364C54.5993 261.234 75.3373 220.727 103.077 215.529L136.6 217.976C174.871 231.444 176.065 287.775 175.252 298.369L52.3643 290.364Z" fill="#F9F9F9"/>
</g>
<path d="M118.918 233.207C129.419 234.013 138.297 229.9 138.748 224.02C139.199 218.141 131.053 212.721 120.552 211.916C110.051 211.11 101.173 215.223 100.722 221.103C100.271 226.982 108.418 232.402 118.918 233.207Z" fill="#C9570B"/>
<path d="M105.195 197.733L137.962 200.247L136.093 224.604C123.659 231.026 112.851 229.642 103.327 222.089L105.195 197.733Z" fill="#F5BE7A"/>
<path d="M104.904 201.51L136.901 214.048L138.083 198.651L105.194 197.733L104.904 201.51Z" fill="#C9570B"/>
<path d="M211.999 138.61C208.974 178.036 167.186 207.359 120.597 203.784C74.008 200.209 39.0809 164.183 42.106 124.757C43.2232 110.196 40.4405 80.2594 51.4296 61.7141C70.1951 30.0443 109.986 11.4744 139.369 13.7289C169.644 16.0518 202.874 48.85 214.352 84.1688C220.538 103.201 213.058 124.804 211.999 138.61Z" fill="#F5BE7A"/>
<path d="M46.0169 139.588C27.6491 142.575 12.125 139.848 13.0704 117.815C13.4826 108.215 25.8258 99.9966 42.5773 106.214L46.0169 139.588Z" fill="#F5BE7A"/>
<path d="M41.4018 133.805C35.0514 136.579 20.1319 135.267 20.8169 126.34C21.5019 117.412 29.2257 113.63 40.0311 117.324L41.4018 133.805Z" fill="#FF5555"/>
<path d="M106.668 156.295C107.408 171.252 129.295 179.179 141.381 159.364" stroke="black" stroke-width="14.8402" stroke-linecap="round" stroke-linejoin="round"/>
<path d="M165.16 97.2322C164.978 97.2308 164.799 97.2706 164.635 97.3484C164.471 97.4262 164.327 97.5401 164.213 97.6816C163.391 98.695 163.114 100.008 162.831 101.213C162.548 102.418 162.394 103.459 162.394 103.459C162.372 103.616 162.38 103.775 162.419 103.928C162.458 104.081 162.526 104.225 162.621 104.352C162.716 104.479 162.834 104.586 162.97 104.666C163.106 104.747 163.256 104.8 163.413 104.823C163.605 104.849 163.8 104.829 163.982 104.764C164.039 104.928 164.13 105.077 164.249 105.202C164.368 105.328 164.513 105.426 164.674 105.49C164.893 105.574 165.132 105.593 165.362 105.543C165.447 105.751 165.589 105.931 165.771 106.063C165.956 106.194 166.175 106.27 166.401 106.283C166.628 106.295 166.854 106.243 167.052 106.133C167.093 106.367 167.202 106.584 167.365 106.756C167.475 106.87 167.606 106.962 167.752 107.026C167.897 107.09 168.054 107.124 168.212 107.127C168.371 107.13 168.529 107.102 168.676 107.044C168.824 106.986 168.959 106.899 169.073 106.789C169.073 106.789 169.133 106.732 169.223 106.644C169.061 106.911 169.009 107.231 169.078 107.536C169.147 107.84 169.332 108.106 169.593 108.277C169.801 108.41 170.044 108.476 170.29 108.466C170.536 108.456 170.774 108.371 170.97 108.222C170.968 108.25 170.965 108.291 170.965 108.291C170.875 108.598 170.911 108.927 171.064 109.207C171.217 109.486 171.475 109.694 171.781 109.784C171.916 109.821 172.056 109.835 172.195 109.825C172.293 110.11 172.495 110.347 172.759 110.491C173.041 110.642 173.37 110.675 173.676 110.583C173.982 110.491 174.238 110.281 174.389 110C174.389 110 174.646 109.433 175.732 108.892C175.873 108.821 176 108.723 176.104 108.604C176.208 108.485 176.287 108.346 176.337 108.196C176.387 108.046 176.408 107.887 176.396 107.73C176.385 107.572 176.343 107.418 176.273 107.276C176.151 107.034 175.951 106.839 175.705 106.725C175.459 106.61 175.182 106.582 174.918 106.645C175.125 106.471 175.267 106.233 175.322 105.968C175.377 105.703 175.341 105.428 175.22 105.186C175.112 104.971 174.942 104.793 174.732 104.675C174.522 104.558 174.282 104.506 174.042 104.526C174.192 104.388 174.311 104.289 174.368 104.261C174.654 104.119 174.871 103.869 174.973 103.567C175.074 103.264 175.051 102.934 174.909 102.648C174.791 102.413 174.598 102.223 174.361 102.107C174.125 101.992 173.856 101.957 173.598 102.009C173.456 101.829 173.265 101.694 173.049 101.619C172.832 101.543 172.599 101.532 172.376 101.585C171.473 101.8 170.697 102.299 169.98 102.852C170.329 102.53 170.615 102.296 170.713 102.252C171.004 102.121 171.23 101.879 171.343 101.581C171.456 101.282 171.445 100.951 171.314 100.66C171.184 100.371 170.945 100.144 170.649 100.03C170.501 99.9717 170.343 99.9436 170.184 99.947C170.025 99.9504 169.868 99.9852 169.723 100.05C169.095 100.331 168.566 100.757 168.09 101.234C168.31 100.909 168.49 100.67 168.564 100.612C168.815 100.416 168.978 100.129 169.018 99.8139C169.058 99.4984 168.971 99.18 168.777 98.9281C168.679 98.8034 168.557 98.6993 168.419 98.6217C168.281 98.5441 168.129 98.4947 167.971 98.4761C167.655 98.4357 167.336 98.5223 167.083 98.7171C166.362 99.2798 165.869 100.047 165.451 100.838C165.702 100.041 165.993 99.3295 166.096 99.2016C166.196 99.0791 166.271 98.938 166.317 98.7863C166.363 98.6347 166.378 98.4755 166.362 98.3178C166.346 98.1602 166.3 98.0073 166.225 97.8678C166.149 97.7284 166.047 97.6051 165.925 97.5051C165.713 97.3322 165.448 97.2367 165.174 97.2344L165.16 97.2322Z" fill="black"/>
<path d="M70.2502 167.298C79.9293 168.041 88.3778 160.796 89.1204 151.117C89.8631 141.438 82.6187 132.99 72.9396 132.247C63.2605 131.504 54.812 138.749 54.0694 148.428C53.3267 158.107 60.5711 166.555 70.2502 167.298Z" fill="#C9570B"/>
<path d="M180.396 175.779C190.749 176.574 199.786 168.825 200.58 158.472C201.374 148.119 193.626 139.083 183.273 138.289C172.92 137.494 163.883 145.243 163.089 155.596C162.295 165.948 170.043 174.985 180.396 175.779Z" fill="#C9570B"/>
<path d="M125.877 147.005C130.189 147.336 133.855 145.38 134.065 142.637C134.276 139.893 130.951 137.401 126.639 137.071C122.327 136.74 118.661 138.695 118.451 141.439C118.24 144.182 121.565 146.674 125.877 147.005Z" fill="#C9570B"/>
<path d="M204.625 151.662C222.322 157.416 239.651 157.315 242.077 135.396C243.135 125.846 229.286 117.839 211.781 121.428L204.625 151.662Z" fill="#F5BE7A"/>
<path d="M210.067 146.649C215.92 150.359 230.865 151.34 231.55 142.412C232.234 133.484 225.179 128.568 213.936 130.571L210.067 146.649Z" fill="#FF5555"/>
<path d="M34.1922 88.0368C56.3469 89.2647 78.9834 84.2793 102.196 64.4713L99.8938 80.8282C114.91 73.9226 121.509 57.2025 130.597 43.3839L133.945 75.81C140.964 61.423 142.15 44.6122 144.333 29.4776C150.483 50.8088 155.785 74.1766 177.163 85.859L181.441 78.8557L181.832 89.3594L213.757 100.337L223.192 101.024C209.16 66.7824 195.607 13.7648 139.368 13.7278C122.977 8.36389 94.508 21.7317 69.3187 30.0125C50.847 45.2976 43.1143 67.0242 34.1922 88.0368Z" fill="#040816"/>
<path d="M88.5042 135.511C94.1744 135.946 99.323 129.105 100.004 120.231C100.685 111.357 96.6401 103.81 90.9699 103.375C85.2997 102.94 80.1512 109.781 79.4703 118.656C78.7894 127.53 82.834 135.076 88.5042 135.511Z" fill="#241C1C"/>
<path d="M158.852 140.935C164.522 141.37 169.671 134.529 170.352 125.655C171.032 116.781 166.988 109.234 161.318 108.799C155.647 108.364 150.499 115.205 149.818 124.079C149.137 132.954 153.182 140.5 158.852 140.935Z" fill="#241C1C"/>
<path d="M92.9263 91.3648C93.1058 91.3913 93.277 91.4579 93.4271 91.5599C93.5772 91.6618 93.7022 91.7963 93.793 91.9534C94.4502 93.0803 94.5245 94.4205 94.6203 95.6542C94.7157 96.888 94.709 97.9407 94.709 97.9407C94.7076 98.0988 94.675 98.255 94.6132 98.4005C94.5514 98.546 94.4615 98.6779 94.3487 98.7887C94.2359 98.8995 94.1024 98.9869 93.9558 99.0461C93.8092 99.1052 93.6524 99.1349 93.4943 99.1335C93.3007 99.1303 93.1107 99.0804 92.9405 98.9881C92.8599 99.1411 92.7472 99.275 92.6102 99.3806C92.4733 99.4862 92.3151 99.5611 92.1466 99.6C91.917 99.65 91.6777 99.6317 91.4584 99.5472C91.3423 99.74 91.1746 99.8964 90.9742 99.9986C90.7713 100.1 90.5438 100.142 90.318 100.12C90.0922 100.098 89.8773 100.012 89.698 99.8729C89.622 100.098 89.4811 100.295 89.2931 100.44C89.1672 100.537 89.0233 100.608 88.87 100.649C88.7166 100.69 88.5567 100.7 88.3994 100.679C88.2421 100.657 88.0905 100.605 87.9535 100.525C87.8164 100.445 87.6964 100.339 87.6006 100.212C87.6006 100.212 87.5503 100.147 87.4743 100.047C87.594 100.336 87.5968 100.659 87.4821 100.95C87.3673 101.241 87.144 101.475 86.8595 101.604C86.6342 101.704 86.3838 101.732 86.142 101.685C85.9003 101.637 85.6789 101.517 85.5076 101.34C85.5055 101.368 85.5023 101.409 85.5023 101.409C85.5439 101.725 85.4582 102.045 85.2642 102.298C85.0701 102.552 84.7835 102.717 84.4673 102.759C84.3286 102.776 84.1881 102.768 84.052 102.737C83.9115 103.003 83.676 103.207 83.3923 103.309C83.0914 103.415 82.7606 103.398 82.4725 103.26C82.1845 103.123 81.9629 102.876 81.8564 102.575C81.8564 102.575 81.6893 101.976 80.699 101.275C80.5697 101.184 80.4596 101.068 80.3751 100.934C80.2907 100.8 80.2335 100.651 80.2067 100.495C80.18 100.339 80.1841 100.18 80.2192 100.025C80.2542 99.8709 80.3194 99.725 80.4108 99.5959C80.5681 99.3749 80.7954 99.2135 81.0559 99.1378C81.3164 99.0622 81.5947 99.0767 81.8459 99.1792C81.668 98.9757 81.5638 98.7182 81.5501 98.4483C81.5363 98.1783 81.6138 97.9116 81.7701 97.6911C81.9094 97.4948 82.1045 97.3449 82.3299 97.2606C82.5554 97.1763 82.8008 97.1615 83.0347 97.2182C82.908 97.0588 82.8058 96.943 82.7528 96.9069C82.4923 96.7227 82.3156 96.4427 82.2615 96.1282C82.2075 95.8138 82.2804 95.4908 82.4644 95.2302C82.6173 95.0156 82.8364 94.8571 83.0881 94.7791C83.3398 94.7011 83.6101 94.7078 83.8575 94.7982C84.0255 94.6423 84.2346 94.5375 84.46 94.4963C84.6855 94.4551 84.918 94.4791 85.1303 94.5655C85.9899 94.916 86.6802 95.5281 87.3051 96.1835C87.0091 95.8119 86.7628 95.5375 86.672 95.4788C86.4047 95.3045 86.2176 95.0312 86.1518 94.719C86.086 94.4069 86.1468 94.0813 86.3209 93.814C86.4935 93.5475 86.7643 93.36 87.0745 93.2923C87.2296 93.2576 87.3899 93.2539 87.5464 93.2815C87.7029 93.3091 87.8524 93.3674 87.9862 93.4531C88.5645 93.8274 89.0219 94.3287 89.4194 94.8729C89.2521 94.5181 89.1101 94.2548 89.0458 94.1857C88.8278 93.9542 88.7104 93.6457 88.7191 93.3278C88.7278 93.0099 88.862 92.7084 89.0923 92.4891C89.2081 92.3808 89.3441 92.2964 89.4926 92.2409C89.6411 92.1853 89.7992 92.1596 89.9577 92.1653C90.2763 92.1736 90.5787 92.308 90.7984 92.5389C91.4257 93.2052 91.795 94.0381 92.0887 94.8841C91.9621 94.0583 91.7831 93.3106 91.7005 93.1685C91.6199 93.0321 91.5671 92.8811 91.545 92.7243C91.5229 92.5674 91.532 92.4077 91.5717 92.2544C91.6114 92.101 91.6811 91.957 91.7766 91.8306C91.8722 91.7043 91.9916 91.598 92.1283 91.5179C92.3643 91.3794 92.6403 91.3254 92.9111 91.3648L92.9263 91.3648Z" fill="black"/>
<path d="M160.241 27.0676C161.275 30.9591 164.683 35.892 169.572 41.4742C169.572 41.4742 174.977 50.3518 178.888 53.6352C179.592 54.2262 180.444 55.1343 181.334 54.9076C183.385 54.386 185.687 53.1598 184.88 49.6436C181.286 33.9697 159.059 22.617 160.241 27.0676Z" fill="#F9F9F9"/>
</svg>
