<svg width="197" height="448" viewBox="0 0 197 448" fill="none" xmlns="http://www.w3.org/2000/svg">
<path d="M163.261 304.99L278.129 251.836L292.073 196.483L285.666 160.301C269.773 133.339 246.151 108.303 207.373 101.574C149.066 91.4563 94.7592 127.039 75.1859 168.835C64.9132 190.771 68.2982 212.397 78.6177 245.311C92.5937 277.317 126.097 303.431 163.261 304.99Z" fill="#110402"/>
<path d="M206.523 423.456C193.273 394.458 191.684 344.822 215.43 325.208L248.736 309.84C292.396 302.49 323.287 355.654 328.106 366.2L206.523 423.456Z" fill="#2EFD30"/>
<path d="M278.821 194.228C296.754 233.477 272.334 283.548 225.955 304.739C179.575 325.931 127.195 309.972 109.262 270.724C102.639 256.228 84.171 229.109 84.8709 205.596C86.0659 165.441 114.258 126.693 143.508 113.328C173.647 99.5573 222.703 113.329 252.317 140.995C268.275 155.904 272.541 180.484 278.821 194.228Z" fill="#9F5131"/>
<path d="M120.83 282.823C104.867 295.376 88.6014 300.97 77.8681 279.43C73.1919 270.045 80.6388 255.678 99.9197 252.768L120.83 282.823Z" fill="#9F5131"/>
<path d="M113.371 279.736C108.772 285.738 93.8313 292.365 89.7705 283.478C85.7098 274.591 91.088 266.899 103.358 264.721L113.371 279.736Z" fill="#863129"/>
<path d="M187.574 266.746C196.18 280.638 221.268 276.65 222.345 251.344" stroke="black" stroke-width="13.2356" stroke-linecap="round" stroke-linejoin="round"/>
<path d="M158.608 296.485C168.244 292.082 172.486 280.702 168.084 271.067C163.681 261.431 152.301 257.189 142.665 261.592C133.03 265.994 128.788 277.374 133.19 287.01C137.593 296.645 148.973 300.888 158.608 296.485Z" fill="#642A1F"/>
<path d="M201.013 247.729C205.306 245.767 207.774 241.964 206.526 239.233C205.278 236.502 200.787 235.878 196.495 237.839C192.202 239.8 189.734 243.604 190.982 246.335C192.23 249.066 196.721 249.69 201.013 247.729Z" fill="#C9570B"/>
<path d="M159.252 256.49C164.896 253.91 166.2 244.658 162.164 235.824C158.127 226.99 150.279 221.919 144.635 224.498C138.99 227.078 137.686 236.33 141.723 245.164C145.759 253.998 153.607 259.069 159.252 256.49Z" fill="#241C1C"/>
<path d="M140.158 211.996C140.344 211.927 140.542 211.9 140.74 211.918C140.937 211.936 141.128 211.998 141.297 212.101C142.52 212.83 143.298 214.07 144.042 215.198C144.785 216.326 145.333 217.335 145.333 217.335C145.415 217.487 145.467 217.653 145.484 217.825C145.502 217.996 145.486 218.17 145.437 218.335C145.388 218.5 145.306 218.654 145.197 218.788C145.089 218.922 144.955 219.033 144.803 219.116C144.616 219.215 144.409 219.267 144.197 219.269C144.201 219.458 144.164 219.645 144.089 219.819C144.014 219.992 143.902 220.147 143.762 220.273C143.569 220.442 143.331 220.551 143.077 220.586C143.069 220.831 142.992 221.068 142.855 221.272C142.715 221.476 142.52 221.636 142.292 221.734C142.065 221.832 141.814 221.864 141.57 221.826C141.616 222.081 141.586 222.344 141.483 222.582C141.414 222.74 141.314 222.884 141.189 223.004C141.064 223.124 140.917 223.218 140.755 223.281C140.594 223.344 140.422 223.374 140.248 223.37C140.075 223.366 139.905 223.328 139.746 223.258C139.746 223.258 139.665 223.221 139.538 223.166C139.805 223.379 139.979 223.687 140.023 224.025C140.066 224.363 139.977 224.705 139.773 224.978C139.611 225.192 139.386 225.351 139.131 225.434C138.875 225.517 138.6 225.519 138.343 225.44C138.361 225.465 138.388 225.502 138.388 225.502C138.595 225.783 138.682 226.133 138.631 226.477C138.579 226.822 138.393 227.131 138.113 227.338C137.989 227.427 137.851 227.494 137.705 227.536C137.711 227.864 137.594 228.183 137.377 228.43C137.263 228.559 137.124 228.664 136.969 228.74C136.814 228.815 136.645 228.859 136.473 228.87C136.301 228.88 136.128 228.856 135.965 228.8C135.802 228.743 135.652 228.656 135.523 228.541C135.523 228.541 135.045 228.058 133.731 227.91C133.559 227.892 133.393 227.839 133.242 227.756C133.09 227.673 132.957 227.56 132.849 227.426C132.741 227.291 132.661 227.136 132.613 226.97C132.565 226.804 132.55 226.63 132.569 226.459C132.603 226.165 132.734 225.891 132.943 225.681C133.152 225.471 133.426 225.338 133.72 225.303C133.442 225.203 133.207 225.012 133.051 224.762C132.895 224.511 132.828 224.216 132.86 223.922C132.89 223.661 132.997 223.415 133.167 223.216C133.338 223.016 133.565 222.872 133.818 222.803C133.611 222.719 133.454 222.661 133.386 222.654C133.04 222.615 132.724 222.441 132.506 222.169C132.289 221.898 132.188 221.551 132.226 221.205C132.259 220.919 132.384 220.652 132.583 220.444C132.782 220.237 133.044 220.101 133.328 220.056C133.406 219.819 133.551 219.608 133.744 219.45C133.938 219.291 134.172 219.192 134.421 219.162C135.426 219.043 136.409 219.263 137.352 219.559C136.874 219.36 136.493 219.228 136.375 219.22C136.028 219.195 135.705 219.033 135.477 218.769C135.249 218.506 135.135 218.163 135.16 217.816C135.184 217.47 135.344 217.148 135.605 216.919C135.734 216.804 135.886 216.716 136.05 216.66C136.214 216.604 136.387 216.58 136.56 216.592C137.31 216.644 138.012 216.881 138.679 217.19C138.331 216.94 138.056 216.764 137.957 216.733C137.627 216.626 137.352 216.393 137.193 216.085C137.034 215.777 137.003 215.418 137.107 215.087C137.161 214.922 137.246 214.77 137.359 214.638C137.471 214.507 137.608 214.399 137.763 214.321C138.071 214.16 138.431 214.129 138.763 214.233C139.714 214.538 140.506 215.138 141.233 215.791C140.677 215.069 140.111 214.45 139.957 214.358C139.808 214.27 139.678 214.154 139.574 214.016C139.47 213.878 139.394 213.721 139.351 213.554C139.307 213.386 139.298 213.212 139.322 213.041C139.346 212.87 139.404 212.705 139.492 212.556C139.644 212.3 139.879 212.102 140.158 211.996Z" fill="black"/>
<path d="M45.8306 140.427C20.7667 149.374 24.3994 154.091 49.0723 155.706C61.2295 155.294 72.3823 151.821 82.8149 146.153L92.3169 135.545C94.6893 126.219 93.8128 116.723 93.4912 107.257C92.3733 99.6591 93.8292 91.3787 88.1966 84.9789C81.9996 77.5885 74.5464 84.0132 76.0446 90.0193L78.7978 101.056L76.6688 101.36L67.0865 89.3215C55.5253 78.7413 47.7704 87.0238 40.4052 97.2367L38.9809 111.795C33.7276 110.277 31.1335 111.897 26.3971 115.734C21.6608 119.571 17.4889 127.083 27.9599 135.903C33.677 138.648 39.4614 141.047 45.8306 140.427Z" fill="#110402"/>
<path d="M92.8467 131.739L80.7282 145.056C79.8816 145.986 79.9495 147.427 80.8798 148.273L83.5988 150.748C84.5292 151.594 85.9697 151.526 86.8163 150.596L98.9347 137.278C99.7813 136.348 99.7134 134.908 98.783 134.061L96.0641 131.587C95.1337 130.74 93.6933 130.808 92.8467 131.739Z" fill="#FFF200"/>
<path d="M198.334 99.3335L210.346 99.4254C234.226 96.2235 250.784 88.7549 256.651 76.044C261.952 62.1629 256.005 69.64 251.878 73.6604C268.901 38.7053 255.654 37.9185 240.087 47.5211C236.283 41.3773 235.209 32.8247 226.38 31.1131C214.329 24.2527 203.22 24.8124 192.748 30.3971C185.479 33.526 186.256 43.4242 188.325 54.4083L182.079 47.2125C165.98 35.3763 168.565 47.6263 166.783 54.2467C171.189 67.9255 179.722 82.9864 190.867 95.1993L198.334 99.3335Z" fill="#110402"/>
<path d="M192.026 93.354L209.677 96.9106C210.91 97.159 211.709 98.3601 211.46 99.5932L210.734 103.197C210.486 104.43 209.285 105.228 208.052 104.98L190.4 101.423C189.167 101.175 188.369 99.9737 188.618 98.7406L189.344 95.1369C189.592 93.9038 190.793 93.1056 192.026 93.354Z" fill="#FFF200"/>
<path d="M217.054 172.894C207.403 177.41 197.746 184.271 195.574 190.393C192.678 198.555 193.723 198.873 198.184 207.642C206.375 230.05 231.547 233.539 247.877 226.077C261.969 219.639 280.699 201.835 268.376 174.866C273.957 187.08 271.319 156.133 263.045 154.939C254.772 153.745 235.427 166.606 226.425 169.273C223.487 170.144 220.271 171.388 217.054 172.894ZM132.689 211.804C130.45 212.826 128.319 213.971 126.383 215.209C118.474 220.269 98.6503 225.654 94.1374 232.69C89.6245 239.726 97.4069 236.851 102.988 249.065C115.31 276.034 139.72 277.999 155.406 269.263C171.091 260.528 185.291 238.314 173.713 217.454C170.003 208.342 168.733 210.963 160.666 207.809C154.112 205.247 142.391 207.373 132.689 211.804Z" fill="white" fill-opacity="0.3"/>
<path d="M273.034 144.157C270.96 143.945 266.975 145.708 266.975 145.708L243.443 155.904C204.929 172.591 194.234 180.078 189.263 193.831C188.136 196.949 186.813 199.641 186.326 199.814C185.838 199.986 182.508 200.77 178.924 201.551C175.34 202.333 171.971 203.417 171.437 203.961C170.883 204.526 169.274 203.892 167.695 202.486C163.821 199.035 155.99 199.127 144.954 202.752C140.151 204.331 123.795 211.453 108.608 218.583L80.9962 231.549L78.7319 232.813C78.7319 232.813 75.7679 233.996 75.8544 237.663C75.9408 241.33 80.6487 250.046 86.5385 252.506C88.1421 253.176 92.7278 251.632 92.7278 251.632L96.9466 255.173C99.2666 257.12 104.868 261.884 109.394 265.756C114.995 270.549 120.082 273.75 125.249 275.975C142.221 283.281 149.336 280.5 171.293 262.365C174.346 259.842 176.698 253.384 178.103 249.121C180.443 242.019 182.255 226.086 180.989 223.268C180.121 221.345 182.703 216.171 186.726 214.721C189.035 214.042 192.948 215.271 194.732 216.732C195.01 217.341 198.512 220.549 202.512 223.86C210.485 230.459 218.06 234.096 226.903 233.561C251.187 232.094 263.953 226.382 270.893 207.772C273.692 200.268 275.931 187.387 275.904 177.962C275.887 171.955 276.484 169.829 279.615 164.791C281.89 161.13 283.79 152.926 281.026 148.058C279.563 145.48 275.983 144.458 273.034 144.157ZM236.79 168.094C241.958 165.76 247.071 162.931 251.258 161.703C257.234 159.95 262.508 159.613 263.172 159.86C264.927 160.514 266.543 173.654 266.194 184.436C265.793 196.853 263.592 206.119 259.927 210.827C256.124 215.712 240.783 223.725 234.339 224.191C219.535 225.262 208.256 219.767 201.348 208.115C198.044 202.544 197.118 194.503 199.432 191.465C203.848 185.665 221.285 175.091 236.79 168.094ZM111.75 226.389C116.587 224.234 122.488 221.715 128.287 219.354C146.929 211.761 149.988 210.775 154.668 210.847C166.253 211.026 169.671 215.08 170.828 230.015C171.611 240.11 169.219 249.054 164.003 255.541C157.463 263.674 139.541 270.832 131.696 268.443C128.057 267.335 115.655 259.433 114.177 257.281C113.533 256.343 112.692 255.462 112.307 255.325C111.718 255.116 107.737 250.52 103.845 245.55C103.303 244.86 101.74 243.018 100.369 241.461C95.2866 235.687 95.3806 234.903 101.603 231.24C103.143 230.334 106.913 228.543 111.75 226.389Z" fill="black"/>
<path d="M86.4021 225.442C87.9152 227.259 85.8907 197.945 87.8468 198.897C103.899 206.708 135.545 197.978 152.222 193.17C165.109 189.454 159.824 185.677 155.526 184.606L143.68 181.654L144.308 180.875L202.538 174.772C207.374 173.975 206.717 171.504 205.02 168.717L186.27 139.886L256.055 139.449L238.426 119.636C220.144 118.751 194.515 88.7622 148.64 110.659C120.885 116.999 98.883 143.369 77.7022 172.597L73.8704 187.15L86.4021 225.442Z" fill="#110402"/>
<path d="M170.488 115.043C173.53 118.213 179.39 121.124 187.007 123.873C187.007 123.873 196.858 129.496 202.327 130.566C203.311 130.759 204.604 131.176 205.334 130.489C207.017 128.908 208.568 126.522 205.941 123.59C194.23 110.52 167.009 111.417 170.488 115.043Z" fill="#F9F9F9"/>
<path d="M87.741 243.363C89.2827 242.659 89.9614 240.838 89.257 239.296C88.5526 237.754 86.7318 237.076 85.19 237.78C83.6483 238.485 82.9695 240.305 83.6739 241.847C84.3784 243.389 86.1993 244.068 87.741 243.363Z" fill="white"/>
</svg>
