<svg width="87" height="34" viewBox="0 0 87 34" fill="none" xmlns="http://www.w3.org/2000/svg">
<path d="M1.19837 32.6246H3.52022V33.7911H0V27.6952H1.19837V32.6246Z" fill="#286CFF"/>
<path d="M7.52727 32.6246H10.0738V33.7911H6.3289V27.6952H10.0364V28.8617H7.52727V30.1787H9.81167V31.3076H7.52727V32.6246Z" fill="#286CFF"/>
<path d="M17.1891 33.7535L16.8147 32.6623H14.3056L13.9311 33.7535H12.6204L14.755 27.6576H16.2529L18.3875 33.7535H17.1891ZM14.7175 31.5334H16.4402L15.5788 29.0499L14.7175 31.5334Z" fill="#286CFF"/>
<path d="M24.4917 33.7535L23.2559 31.6463H22.3571V33.7535H21.1588V27.6576H23.5929C24.1547 27.6576 24.6415 27.8457 25.016 28.2597C25.3905 28.636 25.6152 29.1251 25.6152 29.6896C25.6152 30.0659 25.5029 30.4045 25.2782 30.7432C25.0535 31.0819 24.7913 31.3076 24.4168 31.4582L25.765 33.7535H24.4917ZM22.3571 28.7865V30.5927H23.5929C23.8176 30.5927 24.0049 30.5174 24.1921 30.3293C24.3419 30.1411 24.4168 29.953 24.4168 29.6896C24.4168 29.4262 24.3419 29.238 24.1921 29.0499C24.0423 28.8617 23.8551 28.7865 23.5929 28.7865H22.3571Z" fill="#286CFF"/>
<path d="M32.1688 27.6576H33.3672V33.7535H32.4684L29.8844 30.0282V33.7535H28.686V27.6576H29.5848L32.2062 31.3829V27.6576H32.1688Z" fill="#286CFF"/>
<path d="M37.8611 32.6246H40.4076V33.7911H36.6627V27.6952H40.3701V28.8617H37.8611V30.1787H40.1455V31.3076H37.8611V32.6246Z" fill="#286CFF"/>
<path d="M46.7365 33.7535L45.5007 31.6463H44.6019V33.7535H43.4035V27.6576H45.8377C46.3995 27.6576 46.8863 27.8457 47.2608 28.2597C47.6353 28.636 47.86 29.1251 47.86 29.6896C47.86 30.0659 47.7476 30.4045 47.5229 30.7432C47.2982 31.0819 47.0361 31.3076 46.6616 31.4582L48.0098 33.7535H46.7365ZM44.6019 28.7865V30.5927H45.8377C46.0624 30.5927 46.2497 30.5174 46.4369 30.3293C46.5867 30.1411 46.6616 29.953 46.6616 29.6896C46.6616 29.4262 46.5867 29.238 46.4369 29.0499C46.2871 28.8617 46.0999 28.7865 45.8377 28.7865H44.6019Z" fill="#286CFF"/>
<path d="M52.8782 33.8664C52.279 33.8664 51.7547 33.7159 51.3427 33.4525C50.9308 33.189 50.6312 32.8128 50.4814 32.3612L51.4925 31.7591C51.7172 32.3988 52.2041 32.6999 52.8782 32.6999C53.2152 32.6999 53.4773 32.6246 53.6271 32.5117C53.7769 32.3988 53.8518 32.2483 53.8518 32.0602C53.8518 31.8344 53.7395 31.6839 53.5522 31.571C53.365 31.4581 53.0279 31.3076 52.5411 31.1947C52.279 31.1194 52.0543 31.0442 51.867 30.9689C51.6798 30.8937 51.4925 30.7808 51.3053 30.6302C51.118 30.4797 50.9682 30.3292 50.8933 30.1034C50.781 29.8777 50.7436 29.6519 50.7436 29.3885C50.7436 28.824 50.9308 28.4101 51.3427 28.0715C51.7547 27.7328 52.2041 27.5823 52.7658 27.5823C53.2526 27.5823 53.702 27.6952 54.0765 27.9586C54.451 28.1843 54.7506 28.523 54.9379 28.9746L53.9267 29.5766C53.702 29.0498 53.2901 28.7864 52.7658 28.7864C52.5037 28.7864 52.3164 28.8617 52.1666 28.9746C52.0168 29.0874 51.9419 29.238 51.9419 29.4261C51.9419 29.6143 52.0168 29.7648 52.1666 29.8777C52.3164 29.9906 52.616 30.1411 53.0654 30.254C53.2526 30.3292 53.4024 30.3668 53.4773 30.4045C53.5897 30.4421 53.702 30.4797 53.8518 30.555C54.0016 30.6303 54.1514 30.6679 54.2263 30.7431C54.3012 30.8184 54.4136 30.8937 54.5259 30.9689C54.6383 31.0818 54.7132 31.1571 54.7881 31.2699C54.863 31.3828 54.9004 31.4957 54.9379 31.6462C54.9753 31.7968 55.0128 31.9473 55.0128 32.1354C55.0128 32.6999 54.8255 33.1514 54.4136 33.4901C54.0765 33.7159 53.5522 33.8664 52.8782 33.8664Z" fill="#286CFF"/>
<path d="M4.98074 0H0.0749054V24.9106H14.4179V20.207H4.98074V0Z" fill="#286CFF"/>
<path d="M25.0535 6.6228C22.3197 6.6228 20.0727 7.52591 18.3126 9.29449C16.5525 11.1007 15.6912 13.3208 15.6912 15.9925C15.6912 18.7018 16.59 20.922 18.3501 22.7282C20.1102 24.4967 22.4695 25.3998 25.3905 25.3998C28.7984 25.3998 31.3824 24.1204 33.105 21.5993L29.435 19.4544C28.5362 20.6586 27.2255 21.223 25.4654 21.223C22.7316 21.223 21.0839 20.0941 20.4847 17.874H33.854C33.9663 17.1967 34.0412 16.5946 34.0412 15.9925C34.0412 13.3208 33.1799 11.1007 31.4947 9.29449C29.8095 7.52591 27.6374 6.6228 25.0535 6.6228ZM20.4098 14.3368C20.6719 13.2079 21.1962 12.3048 22.0201 11.7028C22.8065 11.0631 23.8551 10.762 25.0535 10.762C26.102 10.762 27.0008 11.0631 27.8247 11.6651C28.6486 12.2672 29.1729 13.1703 29.435 14.3744H20.4098V14.3368Z" fill="#286CFF"/>
<path d="M50.5189 9.21923C49.1332 7.48828 47.2233 6.6228 44.7517 6.6228C42.3924 6.6228 40.3701 7.52591 38.6849 9.33211C36.9997 11.1383 36.1384 13.3585 36.1384 15.9925C36.1384 18.6266 36.9997 20.8467 38.6849 22.6529C40.3701 24.4591 42.3924 25.3622 44.7517 25.3622C47.2233 25.3622 49.1707 24.4967 50.5189 22.7658V24.873H55.0876V7.11198H50.5189V9.21923ZM49.1332 19.6049C48.197 20.5457 47.0361 20.9972 45.613 20.9972C44.19 20.9972 43.029 20.5457 42.0928 19.6049C41.1566 18.6642 40.7072 17.4601 40.7072 15.9925C40.7072 14.525 41.1566 13.3208 42.0928 12.3801C43.029 11.4394 44.19 10.9878 45.613 10.9878C47.0361 10.9878 48.197 11.4394 49.1332 12.3801C50.0695 13.3208 50.5189 14.525 50.5189 15.9925C50.5189 17.4601 50.0695 18.6642 49.1332 19.6049Z" fill="#286CFF"/>
<path d="M69.543 25.3998C71.9398 25.3998 73.962 24.4967 75.6472 22.6905C77.3324 20.8843 78.1938 18.6642 78.1938 16.0301C78.1938 13.3961 77.3324 11.1759 75.6472 9.36971C73.962 7.5635 71.9398 6.6604 69.543 6.6604C67.1463 6.6604 65.2738 7.48824 63.9256 9.14393V8.2032C63.9256 8.16557 63.9256 8.09031 63.8882 8.05268V8.01505L61.8285 3.49953C61.7161 3.27376 61.4166 3.27376 61.3042 3.49953L59.3194 8.12794C59.282 8.2032 59.282 8.24083 59.282 8.31609V32.9257C59.282 33.1138 59.3943 33.2643 59.5441 33.2643C59.619 33.2643 59.7313 33.302 59.8811 33.3396L59.9186 9.70837C60.368 10.047 60.7799 9.52023 60.7799 9.52023V33.4901C61.6787 33.603 62.8396 33.6783 63.7009 33.4525C63.8507 33.4149 63.9631 33.2643 63.9631 33.1138V30.969V22.9915C65.2364 24.572 67.1088 25.3998 69.543 25.3998ZM69.206 10.8749C72.0896 10.8749 74.4114 13.2079 74.4114 16.1054C74.4114 19.0028 72.0896 21.3358 69.206 21.3358C66.3224 21.3358 64.0005 19.0028 64.0005 16.1054C64.0005 13.2079 66.3598 10.8749 69.206 10.8749ZM62.3902 8.35372C62.3902 8.35372 62.0157 8.8429 61.6038 8.88053C61.0421 8.91816 60.7425 8.42898 60.7425 8.42898C60.7425 8.42898 60.1433 9.25682 59.6939 8.31609L60.9672 5.04233C60.9672 5.04233 61.5289 5.15522 62.1655 5.00471L63.4388 8.31609C63.4763 8.27846 62.8771 9.18156 62.3902 8.35372Z" fill="#286CFF"/>
<path d="M79.7666 1.16647L64.038 0.18811C63.7384 0.18811 63.4388 0.300998 63.2516 0.564404C63.0269 0.827809 62.9145 1.2041 63.0269 1.61803C63.0269 1.65565 63.0269 1.73091 63.0643 1.76854H63.0269L65.5734 6.66036C66.8467 5.98303 68.3821 5.68199 70.1047 5.79488C72.7262 5.9454 74.9357 7.11191 76.6583 9.21916C78.3435 11.2888 79.13 13.7347 78.9802 16.5569L86.0206 17.0461L86.1704 17.0084L86.2453 14.5625L79.7666 1.16647ZM85.8334 16.143L78.9427 2.59639L63.4014 1.65565V1.61803V1.5804C63.3265 1.2041 63.4388 0.940698 63.5512 0.82781C63.6635 0.677292 63.8507 0.602034 64.0005 0.602034C64.0005 0.602034 64.0005 0.602034 64.038 0.602034L79.5419 1.54277L85.8708 14.6002L85.8334 16.143Z" fill="#286CFF"/>
</svg>
