<svg width="659" height="1022" viewBox="0 0 659 1022" fill="none" xmlns="http://www.w3.org/2000/svg">
<path d="M449.462 609.042C448.737 608.874 447.985 608.849 447.251 608.971C446.516 609.092 445.812 609.358 445.18 609.751L254.691 728.408C253.865 728.922 253.186 729.641 252.718 730.494C252.251 731.347 252.01 732.306 252.021 733.279C252.031 734.252 252.291 735.205 252.777 736.048C253.262 736.892 253.956 737.595 254.793 738.093L279.758 752.923C281.051 753.689 282.596 753.91 284.052 753.538C285.508 753.165 286.757 752.23 287.524 750.937C288.29 749.645 288.513 748.101 288.142 746.645C287.771 745.189 286.837 743.939 285.546 743.171L268.597 733.102L451.173 619.377C451.805 618.984 452.353 618.469 452.787 617.864C453.22 617.258 453.53 616.574 453.699 615.848C453.867 615.123 453.891 614.372 453.77 613.637C453.648 612.902 453.382 612.199 452.989 611.567C452.194 610.291 450.926 609.383 449.462 609.042Z" fill="black"/>
<path d="M413.888 362.878L365.02 390.59C364.373 390.958 363.804 391.449 363.346 392.036C362.889 392.623 362.551 393.295 362.353 394.013C362.155 394.73 362.1 395.48 362.192 396.219C362.283 396.958 362.52 397.671 362.887 398.319C363.254 398.967 363.746 399.535 364.333 399.993C364.92 400.451 365.592 400.788 366.31 400.986C367.027 401.184 367.777 401.239 368.516 401.148C369.255 401.056 369.968 400.82 370.616 400.452L416.686 374.328L641.723 502.049L520.948 572.281C519.649 573.037 518.704 574.279 518.321 575.733C517.937 577.186 518.147 578.732 518.903 580.032C519.278 580.675 519.775 581.239 520.367 581.691C520.959 582.142 521.634 582.473 522.354 582.663C523.074 582.854 523.824 582.901 524.562 582.801C525.3 582.702 526.011 582.458 526.654 582.084L655.955 506.892C656.818 506.39 657.532 505.67 658.027 504.805C658.522 503.939 658.78 502.957 658.775 501.96C658.769 500.963 658.501 499.984 657.997 499.124C657.492 498.263 656.77 497.551 655.903 497.059L419.483 362.878C418.63 362.395 417.666 362.14 416.685 362.14C415.704 362.14 414.741 362.395 413.888 362.878Z" fill="black"/>
<path d="M220.284 1.11415L83.9108 78.4542C83.0459 78.9435 82.3249 79.6515 81.8198 80.5072C81.3148 81.363 81.0435 82.3364 81.0331 83.3301C81.0228 84.3237 81.2738 85.3026 81.7609 86.1687C82.2481 87.0347 82.9543 87.7576 83.8087 88.2647L241.752 182.052L207.766 201.097C207.115 201.461 206.543 201.949 206.081 202.534C205.62 203.119 205.278 203.789 205.076 204.506C204.874 205.223 204.815 205.973 204.903 206.713C204.991 207.453 205.223 208.169 205.588 208.818C205.952 209.468 206.441 210.04 207.026 210.5C207.611 210.961 208.282 211.302 208.999 211.504C209.716 211.705 210.466 211.763 211.205 211.675C211.945 211.587 212.66 211.353 213.309 210.989L255.866 187.138C256.733 186.65 257.457 185.943 257.965 185.087C258.472 184.232 258.746 183.258 258.758 182.263C258.77 181.268 258.519 180.287 258.032 179.42C257.545 178.552 256.839 177.828 255.983 177.32L98.0035 83.5034L222.957 12.6373L272.615 43.3607C273.893 44.1515 275.433 44.402 276.897 44.0573C278.36 43.7127 279.626 42.8009 280.417 41.5226C281.208 40.2441 281.459 38.7038 281.114 37.2406C280.769 35.7774 279.857 34.511 278.579 33.72L226.064 1.22488C225.2 0.689677 224.207 0.396989 223.19 0.377505C222.173 0.358022 221.169 0.612472 220.284 1.11415Z" fill="black"/>
<path d="M132.469 250.342L3.16757 325.541C2.30718 326.043 1.59421 326.763 1.10044 327.628C0.606662 328.493 0.349515 329.473 0.35488 330.469C0.360244 331.465 0.627924 332.442 1.13099 333.302C1.63405 334.161 2.35473 334.874 3.22048 335.366L239.64 469.547C240.493 470.031 241.457 470.285 242.438 470.285C243.419 470.285 244.383 470.031 245.236 469.547L294.104 441.835C294.751 441.468 295.32 440.976 295.778 440.389C296.236 439.802 296.573 439.13 296.771 438.413C296.969 437.695 297.024 436.945 296.932 436.206C296.841 435.467 296.604 434.754 296.237 434.106C295.87 433.459 295.378 432.89 294.791 432.432C294.204 431.975 293.532 431.637 292.815 431.439C292.097 431.241 291.347 431.186 290.608 431.278C289.869 431.369 289.156 431.606 288.508 431.973L242.438 458.097L17.3937 330.376L138.176 260.145C139.475 259.388 140.42 258.146 140.803 256.693C141.187 255.239 140.977 253.693 140.221 252.394C139.847 251.75 139.349 251.186 138.757 250.735C138.165 250.283 137.49 249.953 136.77 249.762C136.051 249.572 135.3 249.525 134.562 249.624C133.825 249.724 133.112 249.967 132.469 250.342Z" fill="black"/>
<path d="M373.355 801.902C372.711 801.527 372 801.283 371.262 801.184C370.524 801.085 369.774 801.132 369.054 801.322C368.334 801.513 367.659 801.843 367.067 802.295C366.475 802.746 365.978 803.31 365.604 803.954C365.229 804.597 364.986 805.308 364.886 806.046C364.787 806.784 364.834 807.534 365.024 808.254C365.215 808.974 365.545 809.649 365.997 810.241C366.448 810.833 367.012 811.331 367.656 811.705L488.423 881.943L263.387 1009.66L217.316 983.533C216.009 982.793 214.462 982.602 213.014 983.002C211.567 983.402 210.337 984.361 209.595 985.666C209.227 986.314 208.991 987.027 208.899 987.766C208.808 988.505 208.863 989.255 209.061 989.972C209.259 990.69 209.596 991.362 210.054 991.949C210.512 992.536 211.08 993.028 211.728 993.395L260.589 1021.11C261.442 1021.59 262.406 1021.85 263.387 1021.85C264.367 1021.85 265.331 1021.59 266.184 1021.11L502.604 886.934C503.472 886.441 504.194 885.729 504.698 884.869C505.203 884.008 505.471 883.03 505.476 882.033C505.482 881.035 505.224 880.054 504.729 879.188C504.234 878.322 503.519 877.602 502.657 877.101L373.355 801.902Z" fill="black"/>
<path d="M236.596 978.22C236.596 980.275 235.455 982.31 233.24 984.209C231.025 986.107 227.778 987.832 223.684 989.286C219.591 990.739 214.731 991.891 209.383 992.678C204.034 993.464 198.302 993.869 192.513 993.869C180.821 993.869 169.609 992.22 161.342 989.286C153.075 986.351 148.43 982.371 148.43 978.22C148.43 974.07 153.075 970.09 161.342 967.155C169.609 964.221 180.821 962.572 192.513 962.572C198.302 962.572 204.034 962.977 209.383 963.763C214.731 964.55 219.591 965.702 223.684 967.155C227.778 968.608 231.025 970.333 233.24 972.232C235.456 974.131 236.596 976.165 236.596 978.22Z" fill="black"/>
</svg>
