<svg width="148" height="95" viewBox="0 0 148 95" fill="none" xmlns="http://www.w3.org/2000/svg">
<path d="M0.580505 36.8518V68.4033C0.580505 82.7877 33.4303 94.4487 73.9525 94.4487C114.475 94.4487 147.324 82.7878 147.324 68.4033V36.8518H0.580505Z" fill="#737373"/>
<path d="M73.9503 62.8973C114.473 62.8973 147.322 51.2363 147.322 36.8518C147.322 22.4673 114.473 10.8064 73.9503 10.8064C33.4282 10.8064 0.57843 22.4673 0.57843 36.8518C0.57843 51.2363 33.4282 62.8973 73.9503 62.8973Z" fill="#CCCCCC"/>
<path d="M29.8696 16.0312V34.9877C29.8696 43.63 49.6063 50.6361 73.9525 50.6361C98.2987 50.6361 118.035 43.63 118.035 34.9877V16.0312H29.8696Z" fill="#737373"/>
<path d="M73.9503 31.6798C98.2965 31.6798 118.033 24.6738 118.033 16.0315C118.033 7.38907 98.2965 0.383057 73.9503 0.383057C49.6041 0.383057 29.8676 7.38907 29.8676 16.0315C29.8676 24.6738 49.6041 31.6798 73.9503 31.6798Z" fill="#CCCCCC"/>
</svg>
